<svg width="24" height="24" viewBox="0 0 24 24" fill="none" xmlns="http://www.w3.org/2000/svg">
<g opacity="0.8">
<path d="M20.0007 5L22 5L22 3L18.001 3C18.7582 3.56888 19.4319 4.24275 20.0007 5Z" fill="black"/>
<path d="M5.99903 3L2 3L2 5L3.99927 5C4.56806 4.24275 5.24185 3.56888 5.99903 3Z" fill="black"/>
</g>
<path d="M18.0002 3C18.7574 3.56888 19.4312 4.24275 20 5L3.99854 5C4.56733 4.24275 5.24112 3.56888 5.99829 3L18.0002 3Z" fill="black"/>
<path opacity="0.6" fill-rule="evenodd" clip-rule="evenodd" d="M2 11C2 8.74879 2.74389 6.67132 3.99927 5H20.0007C21.2561 6.67132 22 8.74879 22 11C22 16.5228 17.5228 21 12 21C6.47715 21 2 16.5228 2 11ZM11 7L7 11L8.5 12.5L11 10V17H13V10L15.5 12.5L17 11L13 7H11Z" fill="black"/>
</svg>
