<svg width="24" height="24" viewBox="0 0 24 24" fill="none" xmlns="http://www.w3.org/2000/svg">
<path opacity="0.4" d="M19.9381 13C19.446 16.9463 16.0796 20 12 20C7.92038 20 4.55399 16.9463 4.06189 13C4.02104 13.3276 4 13.6613 4 14C4 18.4183 7.58172 22 12 22C16.4183 22 20 18.4183 20 14C20 13.6613 19.979 13.3276 19.9381 13Z" fill="black"/>
<path opacity="0.6" d="M19.9381 11C19.446 14.9463 16.0796 18 12 18C7.92038 18 4.55399 14.9463 4.06189 11C4.02104 11.3276 4 11.6613 4 12C4 16.4183 7.58172 20 12 20C16.4183 20 20 16.4183 20 12C20 11.6613 19.979 11.3276 19.9381 11Z" fill="black"/>
<path opacity="0.8" fill-rule="evenodd" clip-rule="evenodd" d="M12 18C16.4183 18 20 14.4183 20 10C20 5.58172 16.4183 2 12 2C7.58172 2 4 5.58172 4 10C4 14.4183 7.58172 18 12 18ZM11 14V11H8V9H11V6H13V9H16V11H13V14H11Z" fill="black"/>
</svg>
